<svg width="512" height="512" viewBox="0 0 512 512" fill="none" xmlns="http://www.w3.org/2000/svg">
<path d="M97.8806 298.761C121.497 322.377 159.786 322.377 183.402 298.761C207.018 275.145 207.018 236.856 183.402 213.24C159.786 189.624 121.497 189.624 97.8806 213.24C74.2647 236.856 74.2647 275.145 97.8806 298.761Z" stroke="white" stroke-width="30.2362" stroke-linecap="round" stroke-linejoin="round"/>
<path d="M411.744 376.208V135.792C411.744 120.562 399.397 108.215 384.167 108.215C368.936 108.215 356.589 120.562 356.589 135.792V376.208C356.589 391.439 368.936 403.785 384.167 403.785C399.397 403.785 411.744 391.439 411.744 376.208Z" stroke="white" stroke-width="30.2362" stroke-linecap="round" stroke-linejoin="round"/>
<path d="M303.713 193.237C305.874 185.172 301.087 176.882 293.022 174.721C284.957 172.56 276.668 177.347 274.507 185.412L238.775 318.763C236.614 326.828 241.4 335.117 249.465 337.278C257.53 339.439 265.82 334.653 267.981 326.588L303.713 193.237Z" fill="white"/>
</svg>
